<svg width="200" height="200" viewBox="0 0 500 500" fill="none" xmlns="http://www.w3.org/2000/svg">
<g clip-path="url(#clip0_15_323)">
<ellipse cx="249" cy="369" rx="228" ry="82" fill="#48D2FF"/>
<path d="M474.5 369C474.5 379.308 468.699 389.46 457.463 399.014C446.238 408.559 429.847 417.267 409.374 424.63C368.45 439.348 311.75 448.5 249 448.5C186.25 448.5 129.55 439.348 88.6257 424.63C68.1532 417.267 51.7623 408.559 40.5368 399.014C29.3012 389.46 23.5 379.308 23.5 369C23.5 358.692 29.3012 348.54 40.5368 338.986C51.7623 329.441 68.1532 320.733 88.6257 313.37C129.55 298.652 186.25 289.5 249 289.5C311.75 289.5 368.45 298.652 409.374 313.37C429.847 320.733 446.238 329.441 457.463 338.986C468.699 348.54 474.5 358.692 474.5 369Z" stroke="black" stroke-opacity="0.2" stroke-width="5"/>
<ellipse cx="257.5" cy="369" rx="166.5" ry="61" fill="#35AED6"/>
<path d="M423 361.5C423 384.972 343.083 372.5 244.5 372.5C145.917 372.5 66 384.972 66 361.5C66 338.028 145.917 319 244.5 319C343.083 319 423 338.028 423 361.5Z" fill="#C29857"/>
<path d="M420.5 361.5C420.5 363.592 419.664 365.276 417.81 366.761C415.852 368.33 412.761 369.658 408.398 370.688C399.685 372.744 386.881 373.394 370.733 373.302C356.966 373.224 340.951 372.611 323.23 371.932C320.226 371.817 317.173 371.7 314.074 371.584C292.713 370.781 269.195 370 244.5 370C219.805 370 196.287 370.781 174.926 371.584C171.827 371.7 168.774 371.817 165.77 371.932C148.049 372.611 132.034 373.224 118.267 373.302C102.119 373.394 89.3154 372.744 80.6016 370.688C76.239 369.658 73.1478 368.33 71.1898 366.761C69.3364 365.276 68.5 363.592 68.5 361.5C68.5 357.122 72.3087 352.171 81.2538 347.136C89.9949 342.215 102.81 337.702 118.86 333.88C150.923 326.246 195.344 321.5 244.5 321.5C293.656 321.5 338.077 326.246 370.139 333.88C386.19 337.702 399.005 342.215 407.746 347.136C416.691 352.171 420.5 357.122 420.5 361.5Z" stroke="black" stroke-opacity="0.5" stroke-width="5"/>
<path d="M423 372.634C423 397.837 348.679 384.445 257 384.445C165.321 384.445 91 397.837 91 372.634C91 347.431 165.321 327 257 327C348.679 327 423 347.431 423 372.634Z" fill="#EECB98"/>
<path d="M420.5 372.634C420.5 375.077 419.637 376.963 417.93 378.543C416.135 380.203 413.309 381.607 409.298 382.7C401.26 384.89 389.411 385.59 374.396 385.491C361.604 385.407 346.721 384.749 330.239 384.02C327.446 383.897 324.606 383.771 321.723 383.646C301.857 382.784 279.977 381.945 257 381.945C234.023 381.945 212.143 382.784 192.277 383.646C189.394 383.771 186.554 383.897 183.761 384.02C167.279 384.749 152.396 385.407 139.604 385.491C124.589 385.59 112.74 384.89 104.702 382.7C100.691 381.607 97.8646 380.203 96.0703 378.543C94.3628 376.963 93.5 375.077 93.5 372.634C93.5 367.648 97.2053 362.298 105.407 356.967C113.502 351.706 125.381 346.873 140.283 342.777C170.052 334.593 211.318 329.5 257 329.5C302.682 329.5 343.948 334.593 373.717 342.777C388.619 346.873 400.498 351.706 408.592 356.967C416.795 362.298 420.5 367.648 420.5 372.634Z" stroke="black" stroke-opacity="0.5" stroke-width="5"/>
<path d="M164 202L179.588 355H148.412L164 202Z" fill="#6D571D"/>
<path d="M151.179 352.5L164 226.664L176.821 352.5H151.179Z" stroke="black" stroke-opacity="0.5" stroke-width="5"/>
<path d="M176.966 136.591L178.966 290.371L147.911 287.614L176.966 136.591Z" fill="#6D571D"/>
<path d="M150.889 285.369L174.785 161.159L176.43 287.636L150.889 285.369Z" stroke="black" stroke-opacity="0.5" stroke-width="5"/>
<path d="M194.857 83.3535L179.696 236.049L156.672 231.972L194.857 83.3535Z" fill="#6D571D"/>
<path d="M159.765 229.981L189.137 115.663L177.475 233.117L159.765 229.981Z" stroke="black" stroke-opacity="0.5" stroke-width="5"/>
<path d="M194.876 74.3332L187.207 185.683L164.176 181.642L194.876 74.3332Z" fill="#6D571D"/>
<path d="M167.344 179.66L190.751 97.8409L184.904 182.741L167.344 179.66Z" stroke="black" stroke-opacity="0.5" stroke-width="5"/>
<path d="M227 294C227 277.431 240.431 264 257 264H312C328.569 264 342 277.431 342 294V319H227V294Z" fill="#AE6444"/>
<path d="M257 266.5H312C327.188 266.5 339.5 278.812 339.5 294V316.5H229.5V294C229.5 278.812 241.812 266.5 257 266.5Z" stroke="black" stroke-opacity="0.5" stroke-width="5"/>
<rect x="227" y="294" width="115" height="63" fill="#994F30"/>
<rect x="229.5" y="296.5" width="110" height="58" stroke="black" stroke-opacity="0.5" stroke-width="5"/>
<rect x="245" y="294" width="74" height="63" fill="#7D432A"/>
<rect x="247.5" y="296.5" width="69" height="58" stroke="black" stroke-opacity="0.5" stroke-width="5"/>
<rect x="263" y="294" width="37" height="16" fill="#6B6B6B"/>
<rect x="265.5" y="296.5" width="32" height="11" stroke="black" stroke-opacity="0.5" stroke-width="5"/>
<path d="M159.988 47.9907C164.794 39.8763 175.76 38.104 182.797 44.3042L217.392 74.7839C220.735 77.7292 225.223 79.0214 229.634 78.3086L267.344 72.2138C283.686 69.5727 290.535 92.2271 275.518 99.251V99.251C266.173 103.622 264.337 116.144 272.045 122.935L272.925 123.71C283.952 133.426 275.769 151.647 261.155 149.916L190.421 141.539C187.65 141.211 184.838 141.665 182.302 142.851L117.591 173.119C104.223 179.372 90.9011 164.626 98.4324 151.912L99.0337 150.897C104.298 142.009 98.7445 130.681 88.53 129.472V129.472C72.1155 127.528 71.7393 103.827 88.0811 101.186L125.792 95.0914C130.202 94.3786 134.077 91.7349 136.36 87.8802L159.988 47.9907Z" fill="#5FB142"/>
<path d="M181.142 46.1869L215.737 76.6666C219.637 80.1029 224.873 81.6104 230.019 80.7787L267.729 74.684C281.208 72.5055 286.857 91.1913 274.471 96.9848C263.489 102.121 261.331 116.837 270.389 124.817L271.27 125.593C280.459 133.689 273.639 148.873 261.462 147.431L190.728 139.054C187.494 138.671 184.214 139.201 181.256 140.585L116.545 170.852C105.404 176.063 94.3027 163.775 100.579 153.18L101.18 152.165C107.366 141.721 100.84 128.408 88.8364 126.987C75.2974 125.383 74.987 105.835 88.4661 103.656L126.177 97.5616C131.322 96.73 135.842 93.6457 138.506 89.1485L162.134 49.259C166.139 42.497 175.278 41.0201 181.142 46.1869Z" stroke="black" stroke-opacity="0.5" stroke-width="5"/>
<path d="M168.109 61.1597C171.467 56.1186 178.364 55.043 182.865 58.8586L212.565 84.0359C214.712 85.8563 217.552 86.6462 220.371 86.2066L257.416 80.4298C268.985 78.6257 273.263 94.8207 262.463 99.5397L256.61 102.097C249.734 105.102 248.24 114.279 253.851 119.036L258.092 122.631C265.555 128.958 260.065 141.402 250.27 140.36L187.575 133.687C185.859 133.504 184.114 133.776 182.512 134.476L123.977 160.054C114.833 164.05 106.412 153.775 111.98 145.416L115.144 140.667C119.331 134.381 115.574 126.023 108.209 125.239L101.94 124.572C90.3734 123.341 90.386 106.477 101.955 104.673L139 98.8959C141.818 98.4563 144.347 96.8292 145.949 94.4241L168.109 61.1597Z" fill="#7BFF4D"/>
<path d="M181.233 60.7954L210.933 85.9727C213.617 88.2482 217.168 89.2355 220.691 88.686L257.735 82.9093C266.412 81.5562 269.621 93.7024 261.521 97.2417L255.668 99.7992C247.073 103.555 245.205 115.026 252.22 120.973L256.46 124.568C262.057 129.313 257.94 138.646 250.594 137.865L187.898 131.191C185.754 130.963 183.573 131.303 181.57 132.178L123.035 157.756C116.177 160.753 109.861 153.047 114.037 146.778L117.201 142.028C122.435 134.171 117.739 123.724 108.533 122.744L102.264 122.077C93.5887 121.153 93.5982 108.505 102.275 107.152L139.319 101.375C142.843 100.826 146.004 98.792 148.007 95.7855L170.166 62.5212C172.685 58.7404 177.858 57.9337 181.233 60.7954Z" stroke="black" stroke-opacity="0.5" stroke-width="5"/>
<path d="M169.764 78.1659C171.715 75.2833 175.684 74.6419 178.415 76.7678L200.337 93.8319C201.644 94.8491 203.316 95.276 204.955 95.011L235.182 90.1258C242.159 88.9981 244.95 98.7664 238.451 101.568L229.672 105.353C225.471 107.164 224.728 112.818 228.323 115.616L233.265 119.463C237.977 123.131 234.975 130.716 229.018 130.195L183.168 126.184C182.18 126.097 181.184 126.258 180.27 126.652L137.893 144.923C132.387 147.296 127.226 141.03 130.591 136.057L134.121 130.841C136.688 127.047 134.263 121.905 129.717 121.508L120.219 120.677C113.188 120.062 112.871 109.894 119.848 108.766L150.075 103.881C151.715 103.616 153.175 102.683 154.108 101.303L169.764 78.1659Z" fill="#3ADF00"/>
<path d="M176.876 78.7466L198.798 95.8108C200.649 97.2518 203.018 97.8566 205.34 97.4812L235.567 92.596C239.637 91.9382 241.265 97.6363 237.474 99.2707L228.695 103.056C222.743 105.622 221.691 113.63 226.784 117.595L231.726 121.442C234.475 123.582 232.723 128.006 229.248 127.702L183.399 123.691C181.998 123.569 180.587 123.797 179.293 124.355L136.916 142.625C133.704 144.01 130.693 140.355 132.656 137.454L136.186 132.238C139.824 126.862 136.388 119.578 129.948 119.015L120.45 118.184C116.348 117.825 116.163 111.894 120.233 111.236L150.46 106.351C152.783 105.975 154.851 104.654 156.173 102.7L171.83 79.5622C172.967 77.8807 175.283 77.5065 176.876 78.7466Z" stroke="black" stroke-opacity="0.5" stroke-width="5"/>
<path d="M172.139 93.2958C174.09 90.4361 178.033 89.7988 180.758 91.9028L191.077 99.8709C192.314 100.826 193.891 101.225 195.438 100.975L207.935 98.9558C212.74 98.1792 214.657 104.911 210.177 106.832V106.832C207.274 108.078 206.765 111.985 209.255 113.907L209.45 114.058C212.819 116.66 210.693 122.076 206.445 121.712L182.136 119.63C181.155 119.546 180.166 119.706 179.259 120.095L156.777 129.739C152.848 131.425 149.18 126.945 151.593 123.409L151.733 123.204C153.516 120.591 151.843 117.036 148.704 116.767V116.767C143.861 116.353 143.636 109.348 148.442 108.571L160.938 106.551C162.485 106.301 163.864 105.424 164.749 104.126L172.139 93.2958Z" fill="#B5FF9B"/>
<path d="M179.226 93.8876L189.545 101.856C191.326 103.23 193.597 103.806 195.823 103.446L208.32 101.426C208.894 101.333 209.257 101.468 209.501 101.64C209.777 101.834 210.017 102.163 210.136 102.58C210.254 102.998 210.225 103.405 210.092 103.718C209.976 103.994 209.739 104.304 209.204 104.533C204.544 106.532 203.726 112.805 207.723 115.892L207.918 116.043C209.316 117.122 208.434 119.37 206.671 119.219L182.362 117.137C180.972 117.018 179.572 117.244 178.286 117.796L155.804 127.44C154.174 128.139 152.652 126.28 153.653 124.813L153.792 124.608C156.655 120.413 153.97 114.706 148.93 114.274C148.352 114.225 148.033 114.005 147.838 113.78C147.617 113.523 147.465 113.146 147.451 112.711C147.437 112.277 147.565 111.889 147.769 111.617C147.949 111.377 148.253 111.134 148.827 111.041L161.323 109.022C163.55 108.662 165.534 107.399 166.809 105.53L174.198 94.7002C175.337 93.032 177.637 92.6603 179.226 93.8876Z" stroke="black" stroke-opacity="0.5" stroke-width="5"/>
</g>
<defs>
<clipPath id="clip0_15_323">
<rect width="500" height="500" fill="white"/>
</clipPath>
</defs>
</svg>
